<svg viewBox="0 0 64 64" xmlns="http://www.w3.org/2000/svg">
  <defs>
    <linearGradient id="g" x1="12" y1="6" x2="52" y2="58" gradientUnits="userSpaceOnUse">
      <stop offset="0" stop-color="#f7c948"/>
      <stop offset="1" stop-color="#c9820e"/>
    </linearGradient>
  </defs>
  <rect width="64" height="64" rx="13" fill="#0a0e15"/>
  <path d="M32 4.5 L58 19 V45 L32 59.5 L6 45 V19 Z" fill="#0d1320" stroke="url(#g)" stroke-width="2.4" stroke-linejoin="round"/>
  <path fill-rule="evenodd" fill="url(#g)" d="M24 19 H35 C41.5 19 45.2 21.9 45.2 26.6 C45.2 29.7 43.6 31.9 41 32.9 C44.3 33.9 46.3 36.5 46.3 40 C46.3 45.1 42.2 48 35.8 48 H24 Z M29.5 24 V30.5 H35 C37.8 30.5 39.4 29.3 39.4 27.2 C39.4 25.2 37.8 24 35 24 Z M29.5 35.5 V43 H35.6 C38.6 43 40.4 41.6 40.4 39.2 C40.4 36.8 38.6 35.5 35.6 35.5 Z"/>
</svg>
